#!OML:ASF H:\Dans Jumps\Project 1\Capture day 1\Session 1\subject.ASF
:FULLY-SPECIFIED
:DEGREES
493
root 0.224483 18.0228 -4.94075 20.7952 0.917061 -1.44266
lowerback 6.0486 0.752719 -1.65408
upperback 5.97896 0.912408 1.57523
thorax 2.73135 0.362864 2.51975
lowerneck -13.6278 -0.505724 0.180666
upperneck 25.678 -0.744895 -0.0117981
head 10.4664 -0.318939 -0.129933
rclavicle 5.96354e-016 -1.98785e-015
rhumerus -35.7624 -2.58016 -81.1814
rradius 40.1581
rwrist 21.1878
rhand -28.1374 -31.2761
rfingers 7.12502
rthumb -1.51858 -61.2504
lclavicle 5.96354e-016 -1.98785e-015
lhumerus -43.7017 -11.2557 90.7336
lradius 45.6389
lwrist 34.3614
lhand -30.0254 -7.97488
lfingers 7.12502
lthumb -3.34201 21.9787
rfemur -26.9902 -3.90347 21.0368
rtibia 20.8914
rfoot -10.6282 -4.36782
rtoes 18.1744
lfemur -27.3196 5.14052 -19.1654
ltibia 21.0275
lfoot -8.2646 2.1444
ltoes 5.8774
494
root 0.22185 18.0217 -4.93689 20.6957 0.805265 -1.48269
lowerback 5.96454 0.757006 -1.63717
upperback 5.96965 0.919459 1.5747
thorax 2.76816 0.366556 2.51042
lowerneck -13.5773 -0.482237 0.158245
upperneck 25.7143 -0.70615 -0.013829
head 10.4699 -0.303831 -0.121806
rclavicle -4.27387e-015 -3.18055e-015
rhumerus -35.6951 -2.42099 -81.3576
rradius 40.2663
rwrist 21.1749
rhand -28.1159 -31.206
rfingers 7.12502
rthumb -1.49781 -61.1805
lclavicle -4.27387e-015 -3.18055e-015
lhumerus -43.4678 -11.2979 90.7104
lradius 45.9553
lwrist 34.3798
lhand -30.0603 -8.2328
lfingers 7.12502
lthumb -3.37571 21.7202
rfemur -26.8571 -3.88234 21.0734
rtibia 20.8539
rfoot -10.6354 -4.27432
rtoes 18.1291
lfemur -27.1512 5.15415 -19.1145
ltibia 21.0022
lfoot -8.28767 2.28817
ltoes 5.90206
495
root 0.219003 18.0204 -4.93314 20.5949 0.694124 -1.50821
lowerback 5.88058 0.759152 -1.63274
upperback 5.9589 0.923323 1.56955
thorax 2.80353 0.368355 2.50346
lowerneck -13.5295 -0.459956 0.136554
upperneck 25.7447 -0.668809 -0.0176454
head 10.4718 -0.289526 -0.114624
rclavicle 1.68967e-015 -1.39149e-015
rhumerus -35.64 -2.25673 -81.5361
rradius 40.3892
rwrist 21.1249
rhand -28.1003 -31.1414
rfingers 7.12502
rthumb -1.48275 -61.116
lclavicle 1.68967e-015 -1.39149e-015
lhumerus -43.2463 -11.3474 90.6863
lradius 46.2699
lwrist 34.4119
lhand -30.0829 -8.41658
lfingers 7.12502
lthumb -3.3975 21.5361
rfemur -26.7265 -3.87635 21.0996
rtibia 20.825
rfoot -10.6504 -4.17618
rtoes 18.0805
lfemur -26.9737 5.18671 -19.088
ltibia 20.9608
lfoot -8.31231 2.42006
ltoes 5.91124
496
root 0.215958 18.019 -4.92957 20.4922 0.589334 -1.51925
lowerback 5.79692 0.756666 -1.63864
upperback 5.94784 0.920797 1.56073
thorax 2.83872 0.366691 2.49873
lowerneck -13.4964 -0.437351 0.124518
upperneck 25.779 -0.630365 -0.0330357
head 10.478 -0.275138 -0.113127
rclavicle 1.39149e-015 -4.77083e-015
rhumerus -35.5945 -2.08913 -81.7161
rradius 40.5227
rwrist 21.0375
rhand -28.0945 -31.0833
rfingers 7.12502
rthumb -1.47718 -61.0579
lclavicle 1.39149e-015 -4.77083e-015
lhumerus -43.0384 -11.3946 90.6591
lradius 46.5819
lwrist 34.4492
lhand -30.0798 -8.59275
lfingers 7.12502
lthumb -3.39454 21.36
rfemur -26.5986 -3.88747 21.1166
rtibia 20.8074
rfoot -10.676 -4.07737
rtoes 18.0318
lfemur -26.7888 5.24119 -19.0864
ltibia 20.9019
lfoot -8.33785 2.52996
ltoes 5.89887
497
root 0.212772 18.0172 -4.92615 20.3866 0.491707 -1.51302
lowerback 5.71142 0.749697 -1.65581
upperback 5.93919 0.912127 1.54642
thorax 2.87776 0.361615 2.49491
lowerneck -13.4603 -0.416774 0.106482
upperneck 25.7996 -0.595786 -0.039023
head 10.4786 -0.26203 -0.107725
rclavicle -3.97569e-015 -4.17448e-015
rhumerus -35.5584 -1.92004 -81.8973
rradius 40.6676
rwrist 20.915
rhand -28.0951 -31.0328
rfingers 7.12502
rthumb -1.47776 -61.0074
lclavicle -3.97569e-015 -4.17448e-015
lhumerus -42.8432 -11.4417 90.6276
lradius 46.8936
lwrist 34.4815
lhand -30.08 -8.72875
lfingers 7.12502
lthumb -3.39468 21.224
rfemur -26.4725 -3.91831 21.1213
rtibia 20.8002
rfoot -10.711 -3.9779
rtoes 17.9899
lfemur -26.5954 5.31035 -19.11
ltibia 20.827
lfoot -8.36303 2.62006
ltoes 5.87372
498
root 0.209463 18.0156 -4.92302 20.2797 0.401771 -1.49237
lowerback 5.62594 0.738174 -1.68083
upperback 5.93034 0.897345 1.52682
thorax 2.91693 0.353327 2.4902
lowerneck -13.4152 -0.397141 0.0881431
upperneck 25.8064 -0.563078 -0.0426168
head 10.4723 -0.249563 -0.101618
rclavicle 4.07509e-015 3.77691e-015
rhumerus -35.5306 -1.75259 -82.0795
rradius 40.8154
rwrist 20.7676
rhand -28.1009 -30.9896
rfingers 7.12502
rthumb -1.4834 -60.9642
lclavicle 4.07509e-015 3.77691e-015
lhumerus -42.6645 -11.4876 90.5911
lradius 47.2083
lwrist 34.5067
lhand -30.078 -8.80646
lfingers 7.12502
lthumb -3.39277 21.1463
rfemur -26.3486 -3.96645 21.116
rtibia 20.8001
rfoot -10.7524 -3.87916
rtoes 17.9679
lfemur -26.4 5.39336 -19.1544
ltibia 20.7397
lfoot -8.38382 2.68925
ltoes 5.85476
499
root 0.206072 18.0139 -4.92032 20.1729 0.319913 -1.46441
lowerback 5.53844 0.72158 -1.70878
upperback 5.9226 0.875888 1.50552
thorax 2.95876 0.341599 2.48559
lowerneck -13.3891 -0.375843 0.0815328
upperneck 25.8253 -0.527403 -0.0596453
head 10.4741 -0.236162 -0.101995
rclavicle -8.74653e-015 -1.17283e-014
rhumerus -35.5053 -1.58365 -82.2604
rradius 40.963
rwrist 20.607
rhand -28.1043 -30.9538
rfingers 7.12502
rthumb -1.48663 -60.9283
lclavicle -8.74653e-015 -1.17283e-014
lhumerus -42.4943 -11.5342 90.5527
lradius 47.5173
lwrist 34.5254
lhand -30.069 -8.83254
lfingers 7.12502
lthumb -3.38412 21.1203
rfemur -26.227 -4.02755 21.1072
rtibia 20.8029
rfoot -10.7977 -3.78154
rtoes 17.9612
lfemur -26.2062 5.48538 -19.2092
ltibia 20.6437
lfoot -8.39977 2.74201
ltoes 5.85897
500
root 0.202613 18.0123 -4.91813 20.0671 0.243543 -1.4349
lowerback 5.44967 0.702766 -1.73437
upperback 5.9145 0.851665 1.48349
thorax 3.00115 0.328587 2.47895
lowerneck -13.3607 -0.355067 0.0717333
upperneck 25.8413 -0.492125 -0.0749282
head 10.4745 -0.223052 -0.101253
rclavicle -1.59028e-015 -1.39149e-015
rhumerus -35.4863 -1.41648 -82.4372
rradius 41.1056
rwrist 20.4428
rhand -28.1082 -30.933
rfingers 7.12502
rthumb -1.49042 -60.9076
lclavicle -1.59028e-015 -1.39149e-015
lhumerus -42.3346 -11.5804 90.514
lradius 47.818
lwrist 34.5341
lhand -30.0679 -8.84582
lfingers 7.12502
lthumb -3.38299 21.1071
rfemur -26.1061 -4.09334 21.0981
rtibia 20.8026
rfoot -10.8428 -3.68562
rtoes 17.9921
lfemur -26.0149 5.58305 -19.265
ltibia 20.544
lfoot -8.41436 2.78117
ltoes 5.90534
